PathFileType	4	(X/Y/Z)	C:/Users/beibeiliu/ov580/test_trc/capture2\sequence.38_training_dense_left.trc
DataRate	CameraRate	NumFrames	NumMarkers	Units	OrigDataRate	OrigDataStartFrame	OrigNumFrames
120	120	21	19	mm	120	151	400
Frame#	Time	ThumbCMC			ThumbMCP			ThumbIP			ThumbTip			IndexMCP			IndexPIP			IndexTip			MiddleMCP			MiddlePIP			MiddleTip			RingMCP			RingPIP			RingTip			PinkyMCP			PinkyPIP			PinkyTip			BackHand1			BackHand2			BackHand3	
		X0	Y0	Z0	X1	Y1	Z1	X2	Y2	Z2	X3	Y3	Z3	X4	Y4	Z4	X5	Y5	Z5	X6	Y6	Z6	X7	Y7	Z7	X8	Y8	Z8	X9	Y9	Z9	X10	Y10	Z10	X11	Y11	Z11	X12	Y12	Z12	X13	Y13	Z13	X14	Y14	Z14	X15	Y15	Z15	X16	Y16	Z16	X17	Y17	Z17	X18	Y18	Z18	
150	1.25	-110.365	-11.8067	38.0201	-111.451	-34.1273	12.868	-106.536	-45.6591	-7.32734	-106.097	-49.6138	-33.1391	-87.4682	18.6763	-21.4447	-82.1976	9.90302	-51.1534	-95.8212	-0.790025	-74.6277	-103.995	37.4291	-30.2555	-104.412	33.1785	-61.4392	-108.533	20.0291	-85.2242	-119.508	45.4584	-30.2505	-123.281	46.6169	-57.3098	-125.665	39.8485	-83.1366	-148.515	52.7151	-20.443	-150.654	55.5882	-44.2791	-153.846	65.6842	-68.2326	-131.334	44.0151	24.8747	-139.456	40.3906	51.073	-106.917	25.8823	41.8499	
151	1.25833	-108.584	-19.1419	38.6858	-114.353	-34.0254	13.6694	-108.082	-47.7438	-12.3155	-111.253	-46.7872	-35.1107	-87.231	14.1244	-20.1192	-84.9753	7.20298	-49.6089	-98.9154	-5.87446	-74.0732	-103.716	33.2658	-26.8362	-101.938	30.7846	-58.8799	-109.382	15.2815	-86.981	-120.161	44.6768	-30.2215	-121.454	43.6967	-56.5503	-124.69	39.048	-80.2652	-143.245	49.995	-21.0265	-148.975	55.8126	-41.9397	-151.861	64.3309	-62.5501	-129.272	45.3893	22.4321	-138.129	40.1613	51.5623	-108.432	23.8783	38.0788	
152	1.26667	-111.399	-22.1306	39.0349	-117.147	-39.4735	17.1466	-111.586	-50.0846	-9.10969	-112.168	-50.1738	-33.5941	-85.8941	7.71555	-22.1091	-85.4079	-0.183008	-50.5068	-100.616	-10.058	-71.7431	-100.953	29.7118	-27.675	-98.9837	25.381	-57.2657	-109.904	13.7892	-84.4554	-118.125	40.3355	-25.6655	-120.38	42.1664	-52.8911	-125.025	35.2185	-83.3124	-144.72	50.3089	-18.3177	-144.257	52.8787	-41.3856	-147.639	61.9736	-63.1415	-127.931	39.7284	26.4889	-132.41	35.3579	54.3896	-107.749	18.3777	42.1385	
153	1.275	-114.75	-23.9088	39.6	-117.404	-43.3416	14.6578	-114.927	-47.1296	-11.686	-115.097	-49.2609	-33.7522	-89.9014	6.36565	-19.8014	-89.016	-4.87469	-52.6988	-110.173	-16.5732	-70.8319	-97.178	25.3	-29.1368	-100.609	23.7562	-56.9593	-109.023	8.6336	-83.8892	-120.191	40.2797	-23.6987	-118.956	40.4608	-54.88	-121.742	33.1259	-78.2161	-140.278	45.4897	-17.8294	-145.3	52.9337	-41.7764	-146.161	62.061	-60.6729	-126.714	38.7347	23.663	-134.159	33.6103	56.6043	-107.233	14.6465	44.4743	
154	1.28333	-115.839	-25.8482	38.8223	-118.328	-45.3763	11.1511	-115.214	-50.6241	-17.0998	-118.206	-44.0655	-37.8453	-86.9152	0.774857	-24.8417	-94.7746	-6.51015	-51.9836	-114.841	-20.955	-66.0604	-100.92	24.905	-27.9019	-99.8725	19.5081	-57.2788	-112.191	4.65179	-85.6609	-116.421	34.8262	-23.2997	-120.238	38.7021	-55.7726	-123.207	32.1973	-80.6235	-141.982	45.4103	-16.2809	-140.795	50.2674	-41.0127	-145.29	59.957	-58.7894	-124.687	34.3243	26.4874	-134.754	30.5834	56.8166	-106.34	9.93242	40.9441	
155	1.29167	-117.466	-28.6189	40.9256	-122.35	-40.8426	9.35957	-118.938	-49.8624	-16.2331	-119.008	-45.5231	-42.9701	-88.4152	-3.89762	-21.9927	-95.1785	-14.8872	-52.5243	-120.915	-29.485	-62.5392	-99.5423	21.6893	-27.8118	-101.607	14.3852	-60.9017	-114.928	3.43192	-84.0851	-115.464	33.7138	-25.1082	-119.234	38.4408	-53.0025	-122.043	30.1232	-80.9429	-138.595	44.2986	-20.0497	-142.897	50.3263	-40.2976	-142.913	60.739	-59.6544	-123.113	32.9435	26.4009	-131.683	29.1251	57.5212	-107.985	11.3672	43.9974	
156	1.3	-117.579	-30.1219	37.3572	-123.859	-42.1556	10.2959	-120.634	-50.9398	-18.2554	-122.657	-49.1801	-41.5822	-92.8139	-2.25748	-26.7408	-101.115	-14.1477	-52.1017	-126.46	-30.6724	-58.1622	-101.119	22.1978	-31.1043	-103.8	16.0711	-59.3456	-119.442	1.77237	-85.3203	-117.861	37.0312	-27.6545	-116.266	34.1097	-54.9238	-122.906	29.1069	-82.2176	-138.013	40.9673	-16.013	-139.791	48.0144	-38.0989	-143.02	61.8064	-59.5139	-124.833	32.1211	24.4042	-131.54	26.8953	54.1119	-108.182	9.86341	39.1819	
157	1.30833	-119.236	-33.6318	40.6042	-128.192	-45.7575	13.1973	-125.527	-52.2696	-17.7463	-128.529	-44.5014	-41.171	-91.5756	-7.96279	-24.3608	-102.038	-17.5051	-50.5513	-130.007	-34.9913	-56.6533	-102.998	20.1911	-27.2708	-103.836	12.6727	-59.8732	-123.375	-1.46065	-85.7999	-119.566	35.5977	-26.3105	-117.719	33.7521	-53.7575	-124.198	28.4652	-82.8134	-138.414	43.6984	-17.6886	-139.093	48.3334	-38.1544	-138.561	56.3236	-61.7357	-125.948	33.6657	23.6726	-133.406	28.8162	54.0172	-107.131	4.31602	42.4395	
158	1.31667	-121.834	-31.5337	37.6574	-128.87	-47.5073	9.30291	-130.054	-50.1617	-14.8094	-132.12	-46.6251	-39.4368	-94.6094	-7.15555	-26.7776	-106.257	-19.1331	-52.0377	-133.526	-32.6977	-56.6654	-100.669	17.1749	-31.7674	-104.472	13.0133	-57.3979	-123.378	-0.0610454	-82.3447	-117.261	35.5239	-28.8465	-116.883	33.6042	-53.7902	-124.301	30.5482	-79.365	-138.759	44.9677	-18.0627	-142.253	50.4189	-36.7609	-141.121	59.0067	-62.7667	-126.79	30.5058	27.1546	-133.745	29.3176	55.0814	-107.189	4.78144	41.4003	
159	1.325	-123.722	-33.8085	40.1062	-130.048	-48.3558	8.33942	-130.144	-51.4311	-19.0904	-133.762	-46.5147	-42.0356	-95.1021	-11.3209	-23.5555	-109.43	-22.5159	-53.7118	-135.589	-31.4849	-55.8856	-103.895	17.6834	-28.3154	-109.017	12.9192	-60.2665	-125.583	-2.78681	-83.674	-119.437	34.3255	-26.0203	-116.544	32.4187	-53.9293	-124.219	27.0852	-80.8281	-137.171	42.6107	-17.2053	-139.17	47.6525	-38.4449	-137.16	58.3978	-58.5479	-125.578	31.9206	27.611	-132.032	29.3772	53.8556	-109.189	6.15555	39.9252	
160	1.33333	-125.347	-32.1719	40.672	-131.534	-47.1253	10.952	-131.966	-53.798	-17.6721	-134.386	-47.3701	-44.7503	-97.501	-8.40385	-27.2591	-108.997	-20.8908	-52.5465	-139.53	-35.3251	-56.4454	-102.794	14.9841	-31.7546	-109.168	9.9942	-60.5373	-129.006	-3.61333	-85.9812	-118.536	31.8949	-24.3427	-120.47	35.3407	-57.4272	-125.871	29.1515	-80.0047	-140.06	43.2122	-16.1826	-141.175	51.6484	-41.9265	-137.168	59.6436	-63.3925	-121.616	29.12	23.555	-130.744	24.7039	53.9024	-107.363	3.09323	42.4668	
161	1.34167	-124.945	-31.873	40.0596	-132.64	-50.1164	10.6302	-133.256	-52.3382	-17.7403	-134.77	-49.4171	-42.8952	-96.9413	-12.4045	-25.1925	-107.571	-22.5424	-51.5676	-140.492	-34.3258	-56.5128	-105.923	15.1257	-28.5569	-111.292	11.6764	-60.1393	-127.985	-1.6079	-84.9318	-119.167	33.7295	-27.5967	-119.223	31.6666	-54.2615	-127.626	28.0678	-83.3945	-140.609	42.1055	-15.3994	-140.895	47.735	-38.2678	-142.723	61.1774	-59.6058	-123.884	30.068	22.8419	-132.969	29.3489	51.2904	-109.77	6.51143	39.5199	
162	1.35	-124.322	-30.5388	38.8527	-132.501	-48.0919	9.82409	-134.316	-55.2961	-14.9539	-135.661	-50.2612	-38.7155	-95.8438	-11.6989	-25.753	-111.552	-21.0192	-54.8189	-138.841	-34.4782	-60.7748	-104.733	15.667	-32.248	-109.321	7.93836	-62.9715	-125.216	-4.02859	-85.5977	-118.283	31.0232	-30.4089	-121.885	32.99	-54.7861	-127.17	29.1595	-81.2195	-139.991	44.21	-18.2768	-144.378	51.2527	-38.9265	-143.38	62.2934	-63.3077	-124.852	30.6391	24.6283	-131.366	28.8211	51.0438	-107.772	2.74128	42.0854	
163	1.35833	-123.268	-32.1367	38.2013	-133.262	-47.1825	13.8228	-133.635	-54.7901	-17.8988	-136.743	-53.7798	-38.0671	-96.1346	-9.94779	-25.8631	-106.862	-18.2658	-55.049	-130.012	-30.0757	-66.2864	-103.827	13.9967	-31.6931	-109.883	11.5969	-59.3324	-122.155	-2.98778	-84.7141	-120.325	31.9952	-26.3709	-119.905	32.8954	-52.6822	-124.268	27.2618	-82.054	-139.633	41.3226	-17.4525	-141.944	49.5221	-38.7882	-143.98	60.1948	-58.4697	-124.254	32.4059	25.789	-130.456	26.621	54.033	-108.924	2.62653	42.8483	
164	1.36667	-123.818	-30.0632	37.8033	-134.058	-46.9832	14.0487	-135.04	-52.3735	-14.5634	-136.328	-56.4282	-37.5432	-93.2493	-9.69097	-26.4823	-99.2447	-17.6981	-54.2962	-120.316	-26.0222	-70.2489	-102.67	13.4601	-28.9767	-108.445	11.1043	-60.7064	-123.211	-0.546219	-87.4434	-119.633	32.2289	-27.2546	-121.62	36.3078	-53.8514	-123.882	29.2676	-78.8663	-141.842	43.2429	-16.0106	-140.194	49.303	-40.8171	-138.956	60.6238	-62.2899	-126.452	31.7544	25.2154	-133.61	30.6958	55.2055	-107.53	5.47282	39.4445	
165	1.375	-122.417	-31.2356	37.7856	-133.696	-45.25	13.4271	-135.109	-53.9793	-15.2482	-137.537	-55.6032	-37.6973	-92.2302	-8.10464	-21.8369	-97.6752	-12.862	-54.5594	-113.785	-20.3708	-74.889	-104.484	16.851	-30.5792	-107.463	11.8552	-62.5674	-118.13	-1.18639	-87.2403	-117.43	30.5667	-28.1638	-119.212	34.2853	-56.2611	-122.772	30.1489	-79.9363	-138.637	42.7949	-18.8429	-143.73	52.0378	-37.0613	-141.075	59.5718	-58.9535	-125.119	34.691	25.5798	-129.616	30.2401	52.2457	-108.769	9.30424	40.1934	
166	1.38333	-122.417	-32.6477	38.175	-133.727	-48.9422	13.6734	-133.925	-58.9955	-14.4112	-137.86	-54.5581	-36.804	-92.0757	-6.99102	-20.6692	-92.3174	-11.3517	-53.1726	-103.466	-21.6848	-78.4792	-101.774	17.0259	-32.3631	-105.63	12.6314	-61.4804	-117.312	2.31613	-88.5896	-120.6	35.1393	-26.2607	-119.454	34.01	-53.2886	-125.605	32.9585	-79.6127	-141.26	45.6198	-19.8621	-140.88	49.5326	-41.3545	-141.659	63.0087	-58.7323	-125.484	35.0916	25.9929	-130.347	28.4355	53.8332	-107.039	4.49094	38.75	
167	1.39167	-123.405	-32.4558	41.5198	-133.512	-47.3382	11.3442	-134.752	-59.5435	-10.7484	-137.48	-60.3464	-37.0208	-89.0126	-6.00807	-24.1428	-89.9261	-9.26603	-53.1573	-99.4144	-16.3678	-78.066	-103.487	18.587	-31.0441	-104.909	14.7291	-58.9224	-117.719	6.15507	-88.81	-119.017	31.4661	-24.7958	-119.521	35.5127	-54.3224	-124.385	32.513	-82.1969	-139.04	42.4362	-17.5697	-143.913	51.0964	-38.3714	-142.831	64.3116	-57.4548	-123.975	34.5271	23.6491	-131.664	29.2975	53.2022	-107.29	4.81372	37.8285	
168	1.4	-123.651	-29.8877	37.0866	-134.991	-47.9195	15.5963	-136.239	-55.609	-13.1286	-137.609	-63.2381	-35.5019	-89.2052	-6.4621	-22.3621	-88.5933	-8.32196	-52.9017	-96.1626	-12.8447	-78.0386	-100.996	16.1783	-31.4159	-103.243	15.405	-59.3236	-114.47	5.8244	-91.1998	-118.029	33.1158	-30.5765	-117.513	32.7928	-55.5487	-122.601	31.325	-79.5491	-139.844	43.3185	-18.3613	-140.884	50.4044	-41.4263	-140.324	59.901	-58.3473	-124.391	32.6389	25.0345	-132.232	31.0091	51.6961	-105.872	5.59028	40.6503	
169	1.40833	-124.048	-34.519	41.2093	-135.017	-45.4354	11.6627	-136.164	-54.8919	-13.9749	-138.869	-60.8872	-33.5677	-88.8816	-7.58764	-21.9446	-85.5626	-12.0759	-50.6147	-92.8831	-15.4019	-75.1344	-102.04	18.0753	-29.1769	-100.261	12.2611	-60.4718	-109.382	7.05727	-86.8082	-117.749	31.588	-25.5346	-119.562	36.6835	-54.1641	-123.21	33.3241	-84.6623	-136.813	41.2155	-19.7912	-143.916	50.4518	-39.8469	-142.468	60.8116	-59.182	-123.381	30.1864	25.0725	-128.523	28.9498	54.1495	-106.903	6.63778	39.6427	
170	1.41667	-122.729	-34.2101	37.0424	-135.529	-51.9407	13.8054	-137.327	-59.0521	-9.7082	-140.351	-61.3142	-37.0715	-88.6976	-7.59022	-24.3495	-86.2467	-10.8198	-49.4694	-93.1472	-14.3205	-76.5595	-100.545	17.7911	-30.9319	-98.6708	12.0934	-60.4055	-111.695	9.81581	-86.3987	-117.912	33.5976	-30.5711	-117.944	33.6268	-57.0323	-122.115	31.5055	-79.8776	-139.502	43.5866	-17.6443	-140.893	46.7168	-38.1771	-140.706	58.117	-63.5647	-126.016	32.1949	24.6605	-130.599	30.6984	53.216	-107.473	5.93968	40.9062	
